<svg xmlns="http://www.w3.org/2000/svg" xmlns:xlink="http://www.w3.org/1999/xlink" version="1.1" x="0px" y="0px" viewBox="0 0 100 125" enable-background="new 0 0 100 100" xml:space="preserve"><g><g>
  <g><path fill="#000000" d="M82.22,36.832H21.205c-6.968,0-12.634,5.761-12.634,12.831c0,7.073,5.666,12.824,12.634,12.824H82.22     c6.968,0,12.634-5.751,12.634-12.824C94.854,42.593,89.188,36.832,82.22,36.832z"/></g>
  <g><path fill="#000000" d="M53.682,70.511c0-0.055-0.003-0.11-0.003-0.162h-1.901H23.236h-2.031     c-6.968,0-12.634,5.754-12.634,12.823C8.571,90.246,14.237,96,21.205,96h2.303h28.27h2.176c0-0.069,0-0.137,0-0.203     c5.931-1.049,10.458-6.307,10.458-12.625C64.411,76.76,59.746,71.448,53.682,70.511z"/></g>
  <g><path fill="#000000" d="M21.205,29.001h16.003h16.745h11.526c6.966,0,12.629-5.754,12.629-12.824     c0-7.072-5.663-12.826-12.629-12.826H53.679H36.936h-15.73c-6.968,0-12.634,5.754-12.634,12.826     C8.571,23.247,14.237,29.001,21.205,29.001z"/></g></g></g>
</svg>